<svg width="112" height="31" viewBox="0 0 112 31" fill="none" xmlns="http://www.w3.org/2000/svg">
<g filter="url(#filter0_d_0_8)">
<path fill-rule="evenodd" clip-rule="evenodd" d="M9.13165 13.1602L8.13638 15.0336V21.3273H4.91638V0.83637H8.13638V9.76455L12.3517 0.83637H15.5717L11.0929 9.96946L15.5717 21.3273H12.2638L9.13165 13.1602ZM20.1173 16.6144C20.1173 17.356 20.2685 17.878 20.571 18.1805C20.8735 18.4829 21.2784 18.6342 21.7858 18.6342C22.2932 18.6342 22.6982 18.4829 23.0007 18.1805C23.3031 17.878 23.4544 17.356 23.4544 16.6144V5.54928C23.4544 4.8077 23.3031 4.28567 23.0007 3.98319C22.6982 3.6807 22.2932 3.52946 21.7858 3.52946C21.2784 3.52946 20.8735 3.6807 20.571 3.98319C20.2685 4.28567 20.1173 4.8077 20.1173 5.54928V16.6144ZM16.8973 5.75419C16.8973 4.09539 17.3169 2.82204 18.156 1.9341C18.9952 1.04615 20.2051 0.602188 21.7858 0.602188C23.3666 0.602188 24.5765 1.04615 25.4157 1.9341C26.2548 2.82204 26.6744 4.09539 26.6744 5.75419V16.4095C26.6744 18.0683 26.2548 19.3416 25.4157 20.2296C24.5765 21.1175 23.3666 21.5615 21.7858 21.5615C20.2051 21.5615 18.9952 21.1175 18.156 20.2296C17.3169 19.3416 16.8973 18.0683 16.8973 16.4095V5.75419ZM31.9518 6.48601V21.3273H29.0538V0.83637H33.0935L36.4013 13.1016V0.83637H39.27V21.3273H35.9622L31.9518 6.48601ZM41.5031 5.75419C41.5031 4.09539 41.8983 2.82204 42.6887 1.9341C43.479 1.04615 44.6646 0.602188 46.2453 0.602188C47.826 0.602188 49.0116 1.04615 49.8019 1.9341C50.5923 2.82204 50.9875 4.09539 50.9875 5.75419V6.39819H47.9431V5.54928C47.9431 4.8077 47.8016 4.28567 47.5187 3.98319C47.2357 3.6807 46.8405 3.52946 46.3331 3.52946C45.8257 3.52946 45.4305 3.6807 45.1476 3.98319C44.8646 4.28567 44.7231 4.8077 44.7231 5.54928C44.7231 6.25183 44.8792 6.87143 45.1915 7.4081C45.5037 7.94477 45.894 8.45216 46.3624 8.93028C46.8307 9.4084 47.3333 9.88652 47.8699 10.3646C48.4066 10.8428 48.9091 11.3648 49.3775 11.9307C49.8458 12.4967 50.2361 13.1407 50.5484 13.8627C50.8606 14.5848 51.0167 15.4337 51.0167 16.4095C51.0167 18.0683 50.6118 19.3416 49.8019 20.2296C48.992 21.1175 47.7968 21.5615 46.216 21.5615C44.6353 21.5615 43.44 21.1175 42.6301 20.2296C41.8202 19.3416 41.4153 18.0683 41.4153 16.4095V15.1507H44.4597V16.6144C44.4597 17.3559 44.6109 17.8731 44.9134 18.1658C45.2159 18.4586 45.6208 18.6049 46.1282 18.6049C46.6356 18.6049 47.0405 18.4586 47.343 18.1658C47.6455 17.8731 47.7967 17.3559 47.7967 16.6144C47.7967 15.9118 47.6406 15.2922 47.3284 14.7556C47.0161 14.2189 46.6258 13.7115 46.1575 13.2334C45.6891 12.7552 45.1866 12.2771 44.6499 11.799C44.1133 11.3209 43.6107 10.7989 43.1424 10.2329C42.674 9.66697 42.2837 9.02298 41.9715 8.30092C41.6592 7.57885 41.5031 6.72995 41.5031 5.75419ZM52.2546 0.83637H62.2073V3.76364H58.8409V21.3273H55.6209V3.76364H52.2546V0.83637ZM70.6755 21.3273C70.6364 21.1907 70.5974 21.0638 70.5584 20.9467C70.5193 20.8296 70.4852 20.6833 70.4559 20.5076C70.4267 20.332 70.4071 20.1076 70.3974 19.8344C70.3876 19.5612 70.3827 19.2196 70.3827 18.8098V15.5898C70.3827 14.6336 70.2169 13.9603 69.8851 13.57C69.5533 13.1797 69.0167 12.9846 68.2751 12.9846H67.1627V21.3273H63.9427V0.83637H68.802C70.4803 0.83637 71.6951 1.22667 72.4465 2.00728C73.1978 2.78789 73.5735 3.96854 73.5735 5.54928V7.15928C73.5735 9.26693 72.8709 10.6525 71.4658 11.316C72.2855 11.6478 72.8465 12.1893 73.149 12.9406C73.4515 13.692 73.6027 14.6043 73.6027 15.6776V18.8391C73.6027 19.3465 73.6223 19.7905 73.6613 20.171C73.7003 20.5516 73.7979 20.937 73.954 21.3273H70.6755ZM67.1627 3.76364V10.0573H68.4215C69.0264 10.0573 69.4997 9.90116 69.8412 9.58892C70.1827 9.27667 70.3535 8.71074 70.3535 7.8911V5.87128C70.3535 5.1297 70.2217 4.59304 69.9583 4.26128C69.6948 3.92952 69.2801 3.76364 68.7142 3.76364H67.1627ZM79.1144 0.83637V16.6436C79.1144 17.3852 79.2656 17.9024 79.5681 18.1951C79.8706 18.4878 80.2755 18.6342 80.7829 18.6342C81.2903 18.6342 81.6953 18.4878 81.9977 18.1951C82.3002 17.9024 82.4515 17.3852 82.4515 16.6436V0.83637H85.4958V16.4387C85.4958 18.0975 85.0909 19.3709 84.281 20.2588C83.4711 21.1468 82.2758 21.5907 80.6951 21.5907C79.1144 21.5907 77.9191 21.1468 77.1092 20.2588C76.2993 19.3709 75.8944 18.0975 75.8944 16.4387V0.83637H79.1144ZM96.8202 0.83637H106.773V3.76364H103.407V21.3273H100.187V3.76364H96.8202V0.83637Z" fill="white"/>
<path d="M9.13165 13.1602L9.5985 12.9811L9.20528 11.9558L8.6901 12.9256L9.13165 13.1602ZM8.13638 15.0336L7.69482 14.7991L7.63638 14.9091V15.0336H8.13638ZM8.13638 21.3273V21.8273H8.63638V21.3273H8.13638ZM4.91638 21.3273H4.41638V21.8273H4.91638V21.3273ZM4.91638 0.83637V0.33637H4.41638V0.83637H4.91638ZM8.13638 0.83637H8.63638V0.33637H8.13638V0.83637ZM8.13638 9.76455H7.63638L8.58852 9.97802L8.13638 9.76455ZM12.3517 0.83637V0.33637H12.0348L11.8995 0.6229L12.3517 0.83637ZM15.5717 0.83637L16.0206 1.05652L16.3737 0.33637H15.5717V0.83637ZM11.0929 9.96946L10.644 9.74931L10.5468 9.94752L10.6278 10.1529L11.0929 9.96946ZM15.5717 21.3273V21.8273H16.3063L16.0368 21.1439L15.5717 21.3273ZM12.2638 21.3273L11.797 21.5063L11.9201 21.8273H12.2638V21.3273ZM31.9518 6.48601L32.4345 6.35558L31.4518 6.48601H31.9518ZM31.9518 21.3273V21.8273H32.4518V21.3273H31.9518ZM29.0538 21.3273H28.5538V21.8273H29.0538V21.3273ZM29.0538 0.83637V0.33637H28.5538V0.83637H29.0538ZM33.0935 0.83637L33.5762 0.706177L33.4765 0.33637H33.0935V0.83637ZM36.4013 13.1016L35.9185 13.2318L36.9013 13.1016H36.4013ZM36.4013 0.83637V0.33637H35.9013V0.83637H36.4013ZM39.27 0.83637H39.77V0.33637H39.27V0.83637ZM39.27 21.3273V21.8273H39.77V21.3273H39.27ZM35.9622 21.3273L35.4795 21.4577L35.5794 21.8273H35.9622V21.3273ZM50.9875 6.39819V6.89819H51.4875V6.39819H50.9875ZM47.9431 6.39819H47.4431V6.89819H47.9431V6.39819ZM47.9431 5.54928L48.4431 5.54928L47.9431 5.54928ZM41.4153 15.1507V14.6507H40.9153V15.1507H41.4153ZM44.4597 15.1507H44.9597V14.6507H44.4597V15.1507ZM46.1282 18.6049V18.1049V18.6049ZM47.7967 16.6144L47.2967 16.6144L47.7967 16.6144ZM52.2546 0.83637V0.33637H51.7546V0.83637H52.2546ZM62.2073 0.83637H62.7073V0.33637H62.2073V0.83637ZM62.2073 3.76364V4.26364H62.7073V3.76364H62.2073ZM58.8409 3.76364V3.26364H58.3409V3.76364H58.8409ZM58.8409 21.3273V21.8273H59.3409V21.3273H58.8409ZM55.6209 21.3273H55.1209V21.8273H55.6209V21.3273ZM55.6209 3.76364H56.1209V3.26364H55.6209V3.76364ZM52.2546 3.76364H51.7546V4.26364H52.2546V3.76364ZM70.6755 21.3273L70.1947 21.4646L70.2983 21.8273H70.6755V21.3273ZM67.1627 12.9846V12.4846H66.6627V12.9846H67.1627ZM67.1627 21.3273V21.8273H67.6627V21.3273H67.1627ZM63.9427 21.3273H63.4427V21.8273H63.9427V21.3273ZM63.9427 0.83637V0.33637H63.4427V0.83637H63.9427ZM71.4658 11.316L71.2523 10.8639L70.2203 11.3513L71.2782 11.7795L71.4658 11.316ZM73.954 21.3273V21.8273H74.6925L74.4183 21.1416L73.954 21.3273ZM67.1627 3.76364V3.26364H66.6627V3.76364H67.1627ZM67.1627 10.0573H66.6627V10.5573H67.1627V10.0573ZM68.7142 3.76364V4.26364V3.76364ZM79.1144 0.83637H79.6144V0.33637H79.1144V0.83637ZM82.4515 0.83637V0.33637H81.9515V0.83637H82.4515ZM85.4958 0.83637H85.9958V0.33637H85.4958V0.83637ZM85.4958 16.4387H85.9958H85.4958ZM75.8944 0.83637V0.33637H75.3944V0.83637H75.8944ZM96.8202 0.83637V0.33637H96.3202V0.83637H96.8202ZM106.773 0.83637H107.273V0.33637H106.773V0.83637ZM106.773 3.76364V4.26364H107.273V3.76364H106.773ZM103.407 3.76364V3.26364H102.907V3.76364H103.407ZM103.407 21.3273V21.8273H103.907V21.3273H103.407ZM100.187 21.3273H99.6866V21.8273H100.187V21.3273ZM100.187 3.76364H100.687V3.26364H100.187V3.76364ZM96.8202 3.76364H96.3202V4.26364H96.8202V3.76364ZM8.6901 12.9256L7.69482 14.7991L8.57794 15.2682L9.57321 13.3948L8.6901 12.9256ZM7.63638 15.0336V21.3273H8.63638V15.0336H7.63638ZM8.13638 20.8273H4.91638V21.8273H8.13638V20.8273ZM5.41638 21.3273V0.83637H4.41638V21.3273H5.41638ZM4.91638 1.33637H8.13638V0.33637H4.91638V1.33637ZM7.63638 0.83637V9.76455H8.63638V0.83637H7.63638ZM8.58852 9.97802L12.8038 1.04984L11.8995 0.6229L7.68424 9.55108L8.58852 9.97802ZM12.3517 1.33637H15.5717V0.33637H12.3517V1.33637ZM15.1227 0.616223L10.644 9.74931L11.5419 10.1896L16.0206 1.05652L15.1227 0.616223ZM10.6278 10.1529L15.1065 21.5107L16.0368 21.1439L11.5581 9.78604L10.6278 10.1529ZM15.5717 20.8273H12.2638V21.8273H15.5717V20.8273ZM12.7307 21.1482L9.5985 12.9811L8.66481 13.3392L11.797 21.5063L12.7307 21.1482ZM19.6173 16.6144C19.6173 17.3982 19.7724 18.0889 20.2175 18.534L20.9246 17.8269C20.7647 17.667 20.6173 17.3137 20.6173 16.6144H19.6173ZM20.2175 18.534C20.6309 18.9475 21.1723 19.1342 21.7858 19.1342V18.1342C21.3845 18.1342 21.1161 18.0184 20.9246 17.8269L20.2175 18.534ZM21.7858 19.1342C22.3993 19.1342 22.9407 18.9475 23.3542 18.534L22.6471 17.8269C22.4556 18.0184 22.1871 18.1342 21.7858 18.1342V19.1342ZM23.3542 18.534C23.7993 18.0889 23.9544 17.3982 23.9544 16.6144H22.9544C22.9544 17.3137 22.807 17.667 22.6471 17.8269L23.3542 18.534ZM23.9544 16.6144V5.54928H22.9544V16.6144H23.9544ZM23.9544 5.54928C23.9544 4.76547 23.7993 4.07472 23.3542 3.62963L22.6471 4.33674C22.807 4.49663 22.9544 4.84993 22.9544 5.54928H23.9544ZM23.3542 3.62963C22.9407 3.21616 22.3993 3.02946 21.7858 3.02946V4.02946C22.1871 4.02946 22.4556 4.14524 22.6471 4.33674L23.3542 3.62963ZM21.7858 3.02946C21.1723 3.02946 20.6309 3.21616 20.2175 3.62963L20.9246 4.33674C21.1161 4.14524 21.3845 4.02946 21.7858 4.02946V3.02946ZM20.2175 3.62963C19.7724 4.07472 19.6173 4.76547 19.6173 5.54928H20.6173C20.6173 4.84993 20.7647 4.49663 20.9246 4.33674L20.2175 3.62963ZM19.6173 5.54928V16.6144H20.6173V5.54928H19.6173ZM17.3973 5.75419C17.3973 4.17661 17.7954 3.04361 18.5194 2.27753L17.7926 1.59067C16.8383 2.60047 16.3973 4.01417 16.3973 5.75419H17.3973ZM18.5194 2.27753C19.2384 1.51674 20.3 1.10219 21.7858 1.10219V0.102188C20.1102 0.102188 18.7519 0.57557 17.7926 1.59067L18.5194 2.27753ZM21.7858 1.10219C23.2716 1.10219 24.3333 1.51674 25.0523 2.27753L25.779 1.59067C24.8197 0.57557 23.4615 0.102188 21.7858 0.102188V1.10219ZM25.0523 2.27753C25.7762 3.04361 26.1744 4.17661 26.1744 5.75419H27.1744C27.1744 4.01417 26.7334 2.60047 25.779 1.59067L25.0523 2.27753ZM26.1744 5.75419V16.4095H27.1744V5.75419H26.1744ZM26.1744 16.4095C26.1744 17.987 25.7762 19.12 25.0523 19.8861L25.779 20.573C26.7334 19.5632 27.1744 18.1495 27.1744 16.4095H26.1744ZM25.0523 19.8861C24.3333 20.6469 23.2716 21.0615 21.7858 21.0615V22.0615C23.4615 22.0615 24.8197 21.5881 25.779 20.573L25.0523 19.8861ZM21.7858 21.0615C20.3 21.0615 19.2384 20.6469 18.5194 19.8861L17.7926 20.573C18.7519 21.5881 20.1102 22.0615 21.7858 22.0615V21.0615ZM18.5194 19.8861C17.7954 19.12 17.3973 17.987 17.3973 16.4095H16.3973C16.3973 18.1495 16.8383 19.5632 17.7926 20.573L18.5194 19.8861ZM17.3973 16.4095V5.75419H16.3973V16.4095H17.3973ZM31.4518 6.48601V21.3273H32.4518V6.48601H31.4518ZM31.9518 20.8273H29.0538V21.8273H31.9518V20.8273ZM29.5538 21.3273V0.83637H28.5538V21.3273H29.5538ZM29.0538 1.33637H33.0935V0.33637H29.0538V1.33637ZM32.6107 0.966563L35.9185 13.2318L36.884 12.9714L33.5762 0.706177L32.6107 0.966563ZM36.9013 13.1016V0.83637H35.9013V13.1016H36.9013ZM36.4013 1.33637H39.27V0.33637H36.4013V1.33637ZM38.77 0.83637V21.3273H39.77V0.83637H38.77ZM39.27 20.8273H35.9622V21.8273H39.27V20.8273ZM36.4449 21.1968L32.4345 6.35558L31.4691 6.61644L35.4795 21.4577L36.4449 21.1968ZM42.0031 5.75419C42.0031 4.16955 42.3805 3.03227 43.0621 2.26653L42.3152 1.60166C41.416 2.61182 41.0031 4.02123 41.0031 5.75419H42.0031ZM43.0621 2.26653C43.729 1.51732 44.7577 1.10219 46.2453 1.10219V0.102188C44.5714 0.102188 43.229 0.574982 42.3152 1.60166L43.0621 2.26653ZM46.2453 1.10219C47.7329 1.10219 48.7616 1.51732 49.4284 2.26653L50.1754 1.60166C49.2615 0.574982 47.9191 0.102188 46.2453 0.102188V1.10219ZM49.4284 2.26653C50.11 3.03227 50.4875 4.16955 50.4875 5.75419H51.4875C51.4875 4.02123 51.0746 2.61182 50.1754 1.60166L49.4284 2.26653ZM50.4875 5.75419V6.39819H51.4875V5.75419H50.4875ZM50.9875 5.89819H47.9431V6.89819H50.9875V5.89819ZM48.4431 6.39819V5.54928H47.4431V6.39819H48.4431ZM48.4431 5.54928C48.4431 4.77176 48.3002 4.08669 47.8838 3.64161L47.1535 4.32477C47.3031 4.48466 47.4431 4.84364 47.4431 5.54928L48.4431 5.54928ZM47.8838 3.64161C47.4856 3.21598 46.9454 3.02946 46.3331 3.02946V4.02946C46.7356 4.02946 46.9857 4.14543 47.1535 4.32477L47.8838 3.64161ZM46.3331 3.02946C45.7208 3.02946 45.1806 3.21598 44.7824 3.64161L45.5127 4.32477C45.6805 4.14543 45.9306 4.02946 46.3331 4.02946V3.02946ZM44.7824 3.64161C44.3661 4.08669 44.2231 4.77176 44.2231 5.54928H45.2231C45.2231 4.84364 45.3631 4.48466 45.5127 4.32477L44.7824 3.64161ZM44.2231 5.54928C44.2231 6.32832 44.397 7.0369 44.7593 7.65954L45.6236 7.15665C45.3614 6.70596 45.2231 6.17534 45.2231 5.54928H44.2231ZM44.7593 7.65954C45.0939 8.23467 45.5101 8.77475 46.0052 9.28017L46.7196 8.58039C46.2779 8.12956 45.9135 7.65486 45.6236 7.15665L44.7593 7.65954ZM46.0052 9.28017C46.482 9.76695 46.9928 10.2529 47.5373 10.738L48.2025 9.99131C47.6737 9.52017 47.1794 9.04986 46.7196 8.58039L46.0052 9.28017ZM47.5373 10.738C48.0547 11.1989 48.5397 11.7026 48.9923 12.2495L49.7627 11.6119C49.2785 11.027 48.7585 10.4866 48.2025 9.99131L47.5373 10.738ZM48.9923 12.2495C49.4284 12.7765 49.7946 13.3795 50.0895 14.0612L51.0073 13.6643C50.6776 12.9019 50.2632 12.2168 49.7627 11.6119L48.9923 12.2495ZM50.0895 14.0612C50.3689 14.7075 50.5167 15.486 50.5167 16.4095H51.5167C51.5167 15.3814 51.3523 14.4621 51.0073 13.6643L50.0895 14.0612ZM50.5167 16.4095C50.5167 17.9913 50.131 19.1268 49.4325 19.8926L50.1713 20.5665C51.0926 19.5564 51.5167 18.1452 51.5167 16.4095H50.5167ZM49.4325 19.8926C48.7448 20.6466 47.7029 21.0615 46.216 21.0615V22.0615C47.8906 22.0615 49.2393 21.5884 50.1713 20.5665L49.4325 19.8926ZM46.216 21.0615C44.7292 21.0615 43.6872 20.6466 42.9995 19.8926L42.2607 20.5665C43.1928 21.5884 44.5414 22.0615 46.216 22.0615V21.0615ZM42.9995 19.8926C42.3011 19.1268 41.9153 17.9913 41.9153 16.4095H40.9153C40.9153 18.1452 41.3394 19.5564 42.2607 20.5665L42.9995 19.8926ZM41.9153 16.4095V15.1507H40.9153V16.4095H41.9153ZM41.4153 15.6507H44.4597V14.6507H41.4153V15.6507ZM43.9597 15.1507V16.6144H44.9597V15.1507H43.9597ZM43.9597 16.6144C43.9597 17.3958 44.1137 18.0878 44.5657 18.5251L45.2611 17.8065C45.1081 17.6584 44.9597 17.3161 44.9597 16.6144H43.9597ZM44.5657 18.5251C44.98 18.9261 45.5194 19.1049 46.1282 19.1049V18.1049C45.7222 18.1049 45.4518 17.991 45.2611 17.8065L44.5657 18.5251ZM46.1282 19.1049C46.737 19.1049 47.2764 18.9261 47.6907 18.5251L46.9953 17.8065C46.8046 17.991 46.5342 18.1049 46.1282 18.1049V19.1049ZM47.6907 18.5251C48.1427 18.0878 48.2967 17.3958 48.2967 16.6144L47.2967 16.6144C47.2967 17.3161 47.1483 17.6584 46.9953 17.8065L47.6907 18.5251ZM48.2967 16.6144C48.2967 15.8353 48.1228 15.1268 47.7606 14.5041L46.8962 15.007C47.1584 15.4577 47.2967 15.9883 47.2967 16.6144L48.2967 16.6144ZM47.7606 14.5041C47.4259 13.929 47.0098 13.3889 46.5147 12.8835L45.8003 13.5833C46.2419 14.0341 46.6063 14.5088 46.8962 15.007L47.7606 14.5041ZM46.5147 12.8835C46.0378 12.3967 45.527 11.9108 44.9825 11.4257L44.3173 12.1723C44.8462 12.6435 45.3404 13.1138 45.8003 13.5833L46.5147 12.8835ZM44.9825 11.4257C44.4652 10.9647 43.9802 10.461 43.5276 9.91413L42.7572 10.5517C43.2413 11.1367 43.7614 11.677 44.3173 12.1723L44.9825 11.4257ZM43.5276 9.91413C43.0914 9.3871 42.7252 8.7842 42.4304 8.10246L41.5125 8.49937C41.8422 9.26176 42.2566 9.94685 42.7572 10.5517L43.5276 9.91413ZM42.4304 8.10246C42.1509 7.45618 42.0031 6.67761 42.0031 5.75419H41.0031C41.0031 6.78229 41.1675 7.70153 41.5125 8.49937L42.4304 8.10246ZM52.2546 1.33637H62.2073V0.33637H52.2546V1.33637ZM61.7073 0.83637V3.76364H62.7073V0.83637H61.7073ZM62.2073 3.26364H58.8409V4.26364H62.2073V3.26364ZM58.3409 3.76364V21.3273H59.3409V3.76364H58.3409ZM58.8409 20.8273H55.6209V21.8273H58.8409V20.8273ZM56.1209 21.3273V3.76364H55.1209V21.3273H56.1209ZM55.6209 3.26364H52.2546V4.26364H55.6209V3.26364ZM52.7546 3.76364V0.83637H51.7546V3.76364H52.7546ZM71.1562 21.1899C71.1155 21.0474 71.0744 20.9135 71.0327 20.7886L70.084 21.1048C70.1205 21.2141 70.1574 21.334 70.1947 21.4646L71.1562 21.1899ZM71.0327 20.7886C71.0047 20.7045 70.9758 20.5856 70.9491 20.4254L69.9627 20.5898C69.9946 20.781 70.034 20.9548 70.084 21.1048L71.0327 20.7886ZM70.9491 20.4254C70.9247 20.2792 70.9064 20.0783 70.8971 19.8165L69.8977 19.8522C69.9079 20.1369 69.9286 20.3849 69.9627 20.5898L70.9491 20.4254ZM70.8971 19.8165C70.8876 19.5514 70.8827 19.2163 70.8827 18.8098H69.8827C69.8827 19.223 69.8876 19.5709 69.8977 19.8522L70.8971 19.8165ZM70.8827 18.8098V15.5898H69.8827V18.8098H70.8827ZM70.8827 15.5898C70.8827 14.6052 70.7178 13.7777 70.2661 13.2462L69.5041 13.8938C69.7159 14.143 69.8827 14.6619 69.8827 15.5898H70.8827ZM70.2661 13.2462C69.8029 12.7013 69.0958 12.4846 68.2751 12.4846V13.4846C68.9376 13.4846 69.3038 13.6582 69.5041 13.8938L70.2661 13.2462ZM68.2751 12.4846H67.1627V13.4846H68.2751V12.4846ZM66.6627 12.9846V21.3273H67.6627V12.9846H66.6627ZM67.1627 20.8273H63.9427V21.8273H67.1627V20.8273ZM64.4427 21.3273V0.83637H63.4427V21.3273H64.4427ZM63.9427 1.33637H68.802V0.33637H63.9427V1.33637ZM68.802 1.33637C70.4176 1.33637 71.4701 1.71385 72.0862 2.35401L72.8067 1.66054C71.9202 0.739489 70.543 0.33637 68.802 0.33637V1.33637ZM72.0862 2.35401C72.714 3.00623 73.0735 4.03889 73.0735 5.54928H74.0735C74.0735 3.89819 73.6816 2.56955 72.8067 1.66054L72.0862 2.35401ZM73.0735 5.54928V7.15928H74.0735V5.54928H73.0735ZM73.0735 7.15928C73.0735 9.15446 72.4196 10.3127 71.2523 10.8639L71.6793 11.7681C73.3223 10.9923 74.0735 9.37939 74.0735 7.15928H73.0735ZM71.2782 11.7795C71.9848 12.0655 72.4383 12.5142 72.6852 13.1274L73.6128 12.7539C73.2547 11.8644 72.5861 11.23 71.6534 10.8525L71.2782 11.7795ZM72.6852 13.1274C72.9574 13.8035 73.1027 14.6486 73.1027 15.6776H74.1027C74.1027 14.56 73.9456 13.5805 73.6128 12.7539L72.6852 13.1274ZM73.1027 15.6776V18.8391H74.1027V15.6776H73.1027ZM73.1027 18.8391C73.1027 19.3584 73.1227 19.8201 73.1639 20.222L74.1587 20.12C74.1218 19.7608 74.1027 19.3346 74.1027 18.8391H73.1027ZM73.1639 20.222C73.2081 20.6531 73.3181 21.0838 73.4898 21.513L74.4183 21.1416C74.2777 20.7902 74.1925 20.45 74.1587 20.12L73.1639 20.222ZM73.954 20.8273H70.6755V21.8273H73.954V20.8273ZM66.6627 3.76364V10.0573H67.6627V3.76364H66.6627ZM67.1627 10.5573H68.4215V9.55728H67.1627V10.5573ZM68.4215 10.5573C69.1119 10.5573 69.7195 10.3777 70.1786 9.95793L69.5038 9.2199C69.2799 9.42462 68.941 9.55728 68.4215 9.55728V10.5573ZM70.1786 9.95793C70.6801 9.49942 70.8535 8.75014 70.8535 7.8911H69.8535C69.8535 8.67134 69.6854 9.05393 69.5038 9.2199L70.1786 9.95793ZM70.8535 7.8911V5.87128H69.8535V7.8911H70.8535ZM70.8535 5.87128C70.8535 5.09277 70.7195 4.41577 70.3498 3.95034L69.5667 4.57222C69.724 4.7703 69.8535 5.16663 69.8535 5.87128H70.8535ZM70.3498 3.95034C69.9619 3.46186 69.3777 3.26364 68.7142 3.26364V4.26364C69.1826 4.26364 69.4277 4.39717 69.5667 4.57222L70.3498 3.95034ZM68.7142 3.26364H67.1627V4.26364H68.7142V3.26364ZM78.6144 0.83637V16.6436H79.6144V0.83637H78.6144ZM78.6144 16.6436C78.6144 17.425 78.7685 18.117 79.2204 18.5544L79.9158 17.8358C79.7628 17.6877 79.6144 17.3454 79.6144 16.6436H78.6144ZM79.2204 18.5544C79.6347 18.9553 80.1741 19.1342 80.7829 19.1342V18.1342C80.377 18.1342 80.1065 18.0203 79.9158 17.8358L79.2204 18.5544ZM80.7829 19.1342C81.3917 19.1342 81.9312 18.9553 82.3454 18.5544L81.65 17.8358C81.4594 18.0203 81.1889 18.1342 80.7829 18.1342V19.1342ZM82.3454 18.5544C82.7974 18.117 82.9515 17.425 82.9515 16.6436H81.9515C81.9515 17.3454 81.8031 17.6877 81.65 17.8358L82.3454 18.5544ZM82.9515 16.6436V0.83637H81.9515V16.6436H82.9515ZM82.4515 1.33637H85.4958V0.33637H82.4515V1.33637ZM84.9958 0.83637V16.4387H85.9958V0.83637H84.9958ZM84.9958 16.4387C84.9958 18.0206 84.6101 19.1561 83.9116 19.9219L84.6504 20.5958C85.5717 19.5857 85.9958 18.1745 85.9958 16.4387L84.9958 16.4387ZM83.9116 19.9219C83.2239 20.6758 82.1819 21.0907 80.6951 21.0907V22.0907C82.3697 22.0907 83.7183 21.6177 84.6504 20.5958L83.9116 19.9219ZM80.6951 21.0907C79.2083 21.0907 78.1663 20.6758 77.4786 19.9219L76.7398 20.5958C77.6719 21.6177 79.0205 22.0907 80.6951 22.0907V21.0907ZM77.4786 19.9219C76.7801 19.1561 76.3944 18.0206 76.3944 16.4387H75.3944C75.3944 18.1745 75.8185 19.5857 76.7398 20.5958L77.4786 19.9219ZM76.3944 16.4387V0.83637H75.3944V16.4387H76.3944ZM75.8944 1.33637H79.1144V0.33637H75.8944V1.33637ZM96.8202 1.33637H106.773V0.33637H96.8202V1.33637ZM106.273 0.83637V3.76364H107.273V0.83637H106.273ZM106.773 3.26364H103.407V4.26364H106.773V3.26364ZM102.907 3.76364V21.3273H103.907V3.76364H102.907ZM103.407 20.8273H100.187V21.8273H103.407V20.8273ZM100.687 21.3273V3.76364H99.6866V21.3273H100.687ZM100.187 3.26364H96.8202V4.26364H100.187V3.26364ZM97.3202 3.76364V0.83637H96.3202V3.76364H97.3202Z" fill="black"/>
</g>
<path fill-rule="evenodd" clip-rule="evenodd" d="M87.0254 11.4851L95.389 1.03058V21.9397L87.0254 11.4851Z" fill="#00A4E5"/>
<defs>
<filter id="filter0_d_0_8" x="0.416382" y="0.102188" width="110.857" height="29.9885" filterUnits="userSpaceOnUse" color-interpolation-filters="sRGB">
<feFlood flood-opacity="0" result="BackgroundImageFix"/>
<feColorMatrix in="SourceAlpha" type="matrix" values="0 0 0 0 0 0 0 0 0 0 0 0 0 0 0 0 0 0 127 0" result="hardAlpha"/>
<feOffset dy="4"/>
<feGaussianBlur stdDeviation="2"/>
<feComposite in2="hardAlpha" operator="out"/>
<feColorMatrix type="matrix" values="0 0 0 0 0 0 0 0 0 0 0 0 0 0 0 0 0 0 0.25 0"/>
<feBlend mode="normal" in2="BackgroundImageFix" result="effect1_dropShadow_0_8"/>
<feBlend mode="normal" in="SourceGraphic" in2="effect1_dropShadow_0_8" result="shape"/>
</filter>
</defs>
</svg>
